<mxfile host="app.diagrams.net" modified="2023-11-17T10:08:01.001Z" agent="Mozilla/5.0 (Windows NT 10.0; Win64; x64) AppleWebKit/537.36 (KHTML, like Gecko) Chrome/119.0.0.0 Safari/537.36" etag="mesvZIEmJsWEhcpIhypq" version="22.1.2" type="github">
  <diagram name="第 1 页" id="GaBmsx1Is14LpkjWLqSm">
    <mxGraphModel dx="1050" dy="581" grid="0" gridSize="10" guides="1" tooltips="1" connect="1" arrows="1" fold="1" page="0" pageScale="1" pageWidth="827" pageHeight="1169" math="0" shadow="0">
      <root>
        <mxCell id="0" />
        <mxCell id="1" parent="0" />
        <mxCell id="1xl6KJvUVZGci1ZkjZxp-3" value="" style="group;fillColor=#f8cecc;strokeColor=#b85450;" vertex="1" connectable="0" parent="1">
          <mxGeometry x="75" y="86" width="142" height="100" as="geometry" />
        </mxCell>
        <mxCell id="1xl6KJvUVZGci1ZkjZxp-1" value="&lt;font style=&quot;font-size: 15px;&quot;&gt;Java 源代码&lt;/font&gt;" style="rounded=0;whiteSpace=wrap;html=1;fillColor=#fff2cc;strokeColor=#d6b656;" vertex="1" parent="1xl6KJvUVZGci1ZkjZxp-3">
          <mxGeometry width="142" height="50" as="geometry" />
        </mxCell>
        <mxCell id="1xl6KJvUVZGci1ZkjZxp-2" value="&lt;font style=&quot;font-size: 15px;&quot;&gt;Main.java&lt;/font&gt;" style="rounded=0;whiteSpace=wrap;html=1;fillColor=#dae8fc;strokeColor=#6c8ebf;" vertex="1" parent="1xl6KJvUVZGci1ZkjZxp-3">
          <mxGeometry y="50" width="142" height="50" as="geometry" />
        </mxCell>
        <mxCell id="1xl6KJvUVZGci1ZkjZxp-4" value="" style="group;fillColor=#f8cecc;strokeColor=#b85450;" vertex="1" connectable="0" parent="1">
          <mxGeometry x="314" y="86" width="143" height="100" as="geometry" />
        </mxCell>
        <mxCell id="1xl6KJvUVZGci1ZkjZxp-5" value="&lt;font style=&quot;font-size: 15px;&quot;&gt;Java 字节码文件&lt;/font&gt;" style="rounded=0;whiteSpace=wrap;html=1;fillColor=#fff2cc;strokeColor=#d6b656;" vertex="1" parent="1xl6KJvUVZGci1ZkjZxp-4">
          <mxGeometry width="143" height="50" as="geometry" />
        </mxCell>
        <mxCell id="1xl6KJvUVZGci1ZkjZxp-6" value="&lt;font style=&quot;font-size: 15px;&quot;&gt;Main.class&lt;/font&gt;" style="rounded=0;whiteSpace=wrap;html=1;fillColor=#dae8fc;strokeColor=#6c8ebf;" vertex="1" parent="1xl6KJvUVZGci1ZkjZxp-4">
          <mxGeometry y="50" width="143" height="50" as="geometry" />
        </mxCell>
        <mxCell id="1xl6KJvUVZGci1ZkjZxp-8" value="&lt;font style=&quot;font-size: 15px;&quot;&gt;运行结果&lt;/font&gt;" style="rounded=0;whiteSpace=wrap;html=1;fillColor=#ffe6cc;strokeColor=#d79b00;" vertex="1" parent="1">
          <mxGeometry x="548" y="106" width="120" height="60" as="geometry" />
        </mxCell>
        <mxCell id="1xl6KJvUVZGci1ZkjZxp-9" style="rounded=0;orthogonalLoop=1;jettySize=auto;html=1;exitX=1;exitY=0;exitDx=0;exitDy=0;entryX=0;entryY=1;entryDx=0;entryDy=0;" edge="1" parent="1" source="1xl6KJvUVZGci1ZkjZxp-2" target="1xl6KJvUVZGci1ZkjZxp-5">
          <mxGeometry relative="1" as="geometry" />
        </mxCell>
        <mxCell id="1xl6KJvUVZGci1ZkjZxp-10" style="rounded=0;orthogonalLoop=1;jettySize=auto;html=1;exitX=1;exitY=1;exitDx=0;exitDy=0;entryX=0;entryY=0.5;entryDx=0;entryDy=0;" edge="1" parent="1" source="1xl6KJvUVZGci1ZkjZxp-5" target="1xl6KJvUVZGci1ZkjZxp-8">
          <mxGeometry relative="1" as="geometry" />
        </mxCell>
        <mxCell id="1xl6KJvUVZGci1ZkjZxp-11" value="javac" style="rounded=0;whiteSpace=wrap;html=1;fillColor=#d5e8d4;strokeColor=#82b366;" vertex="1" parent="1">
          <mxGeometry x="229" y="99" width="73" height="27" as="geometry" />
        </mxCell>
        <mxCell id="1xl6KJvUVZGci1ZkjZxp-12" value="编译" style="rounded=0;whiteSpace=wrap;html=1;fillColor=#d5e8d4;strokeColor=#82b366;" vertex="1" parent="1">
          <mxGeometry x="229" y="147" width="73" height="27" as="geometry" />
        </mxCell>
        <mxCell id="1xl6KJvUVZGci1ZkjZxp-13" value="java" style="rounded=0;whiteSpace=wrap;html=1;fillColor=#d5e8d4;strokeColor=#82b366;" vertex="1" parent="1">
          <mxGeometry x="464" y="101" width="73" height="27" as="geometry" />
        </mxCell>
        <mxCell id="1xl6KJvUVZGci1ZkjZxp-14" value="执行" style="rounded=0;whiteSpace=wrap;html=1;fillColor=#d5e8d4;strokeColor=#82b366;" vertex="1" parent="1">
          <mxGeometry x="464" y="147" width="73" height="27" as="geometry" />
        </mxCell>
        <mxCell id="1xl6KJvUVZGci1ZkjZxp-42" style="edgeStyle=orthogonalEdgeStyle;rounded=0;orthogonalLoop=1;jettySize=auto;html=1;entryX=0.015;entryY=0.398;entryDx=0;entryDy=0;entryPerimeter=0;" edge="1" parent="1" source="1xl6KJvUVZGci1ZkjZxp-15" target="1xl6KJvUVZGci1ZkjZxp-22">
          <mxGeometry relative="1" as="geometry" />
        </mxCell>
        <mxCell id="1xl6KJvUVZGci1ZkjZxp-15" value="" style="rounded=1;whiteSpace=wrap;html=1;dashed=1;dashPattern=8 8;" vertex="1" parent="1">
          <mxGeometry x="73" y="258" width="176" height="307" as="geometry" />
        </mxCell>
        <mxCell id="1xl6KJvUVZGci1ZkjZxp-16" value="JAVA 编译器" style="text;html=1;strokeColor=none;fillColor=none;align=center;verticalAlign=middle;whiteSpace=wrap;rounded=0;" vertex="1" parent="1">
          <mxGeometry x="93" y="225" width="112" height="34" as="geometry" />
        </mxCell>
        <mxCell id="1xl6KJvUVZGci1ZkjZxp-27" style="edgeStyle=orthogonalEdgeStyle;rounded=0;orthogonalLoop=1;jettySize=auto;html=1;entryX=0.5;entryY=0;entryDx=0;entryDy=0;" edge="1" parent="1" source="1xl6KJvUVZGci1ZkjZxp-17" target="1xl6KJvUVZGci1ZkjZxp-19">
          <mxGeometry relative="1" as="geometry" />
        </mxCell>
        <mxCell id="1xl6KJvUVZGci1ZkjZxp-17" value="A.java" style="strokeWidth=2;html=1;shape=mxgraph.flowchart.document2;whiteSpace=wrap;size=0.1483863092237903;" vertex="1" parent="1">
          <mxGeometry x="96" y="291" width="58" height="31" as="geometry" />
        </mxCell>
        <mxCell id="1xl6KJvUVZGci1ZkjZxp-28" style="edgeStyle=orthogonalEdgeStyle;rounded=0;orthogonalLoop=1;jettySize=auto;html=1;entryX=0.5;entryY=0;entryDx=0;entryDy=0;" edge="1" parent="1" source="1xl6KJvUVZGci1ZkjZxp-18" target="1xl6KJvUVZGci1ZkjZxp-19">
          <mxGeometry relative="1" as="geometry" />
        </mxCell>
        <mxCell id="1xl6KJvUVZGci1ZkjZxp-18" value="B.java" style="strokeWidth=2;html=1;shape=mxgraph.flowchart.document2;whiteSpace=wrap;size=0.25;" vertex="1" parent="1">
          <mxGeometry x="171" y="291" width="58" height="31" as="geometry" />
        </mxCell>
        <mxCell id="1xl6KJvUVZGci1ZkjZxp-29" style="edgeStyle=orthogonalEdgeStyle;rounded=0;orthogonalLoop=1;jettySize=auto;html=1;entryX=0.5;entryY=0;entryDx=0;entryDy=0;entryPerimeter=0;" edge="1" parent="1" source="1xl6KJvUVZGci1ZkjZxp-19" target="1xl6KJvUVZGci1ZkjZxp-21">
          <mxGeometry relative="1" as="geometry" />
        </mxCell>
        <mxCell id="1xl6KJvUVZGci1ZkjZxp-30" style="edgeStyle=orthogonalEdgeStyle;rounded=0;orthogonalLoop=1;jettySize=auto;html=1;entryX=0.5;entryY=0;entryDx=0;entryDy=0;entryPerimeter=0;" edge="1" parent="1" source="1xl6KJvUVZGci1ZkjZxp-19" target="1xl6KJvUVZGci1ZkjZxp-20">
          <mxGeometry relative="1" as="geometry" />
        </mxCell>
        <mxCell id="1xl6KJvUVZGci1ZkjZxp-19" value="JAVA 编译器" style="rounded=1;whiteSpace=wrap;html=1;" vertex="1" parent="1">
          <mxGeometry x="124" y="380" width="81" height="28" as="geometry" />
        </mxCell>
        <mxCell id="1xl6KJvUVZGci1ZkjZxp-20" value="A.class" style="strokeWidth=2;html=1;shape=mxgraph.flowchart.document2;whiteSpace=wrap;size=0.25;" vertex="1" parent="1">
          <mxGeometry x="93" y="466" width="58" height="31" as="geometry" />
        </mxCell>
        <mxCell id="1xl6KJvUVZGci1ZkjZxp-21" value="B.class" style="strokeWidth=2;html=1;shape=mxgraph.flowchart.document2;whiteSpace=wrap;size=0.25;" vertex="1" parent="1">
          <mxGeometry x="174" y="466" width="58" height="31" as="geometry" />
        </mxCell>
        <mxCell id="1xl6KJvUVZGci1ZkjZxp-22" value="" style="rounded=1;whiteSpace=wrap;html=1;dashed=1;dashPattern=8 8;" vertex="1" parent="1">
          <mxGeometry x="361" y="259" width="177" height="386" as="geometry" />
        </mxCell>
        <mxCell id="1xl6KJvUVZGci1ZkjZxp-23" value="Java 运行时" style="text;html=1;strokeColor=none;fillColor=none;align=center;verticalAlign=middle;whiteSpace=wrap;rounded=0;" vertex="1" parent="1">
          <mxGeometry x="397" y="228" width="93" height="28" as="geometry" />
        </mxCell>
        <mxCell id="1xl6KJvUVZGci1ZkjZxp-24" value="A.java" style="strokeWidth=2;html=1;shape=mxgraph.flowchart.document2;whiteSpace=wrap;size=0.25;" vertex="1" parent="1">
          <mxGeometry x="382.5" y="291" width="58" height="31" as="geometry" />
        </mxCell>
        <mxCell id="1xl6KJvUVZGci1ZkjZxp-25" value="B.java" style="strokeWidth=2;html=1;shape=mxgraph.flowchart.document2;whiteSpace=wrap;size=0.25;" vertex="1" parent="1">
          <mxGeometry x="457.5" y="291" width="58" height="31" as="geometry" />
        </mxCell>
        <mxCell id="1xl6KJvUVZGci1ZkjZxp-31" value="" style="rounded=0;whiteSpace=wrap;html=1;" vertex="1" parent="1">
          <mxGeometry x="400.5" y="338" width="102" height="212" as="geometry" />
        </mxCell>
        <mxCell id="1xl6KJvUVZGci1ZkjZxp-32" value="JVM" style="text;html=1;strokeColor=none;fillColor=none;align=center;verticalAlign=middle;whiteSpace=wrap;rounded=0;" vertex="1" parent="1">
          <mxGeometry x="419" y="338" width="60" height="30" as="geometry" />
        </mxCell>
        <mxCell id="1xl6KJvUVZGci1ZkjZxp-37" value="" style="edgeStyle=orthogonalEdgeStyle;rounded=0;orthogonalLoop=1;jettySize=auto;html=1;" edge="1" parent="1" source="1xl6KJvUVZGci1ZkjZxp-33" target="1xl6KJvUVZGci1ZkjZxp-36">
          <mxGeometry relative="1" as="geometry" />
        </mxCell>
        <mxCell id="1xl6KJvUVZGci1ZkjZxp-33" value="类装配器" style="rounded=1;whiteSpace=wrap;html=1;" vertex="1" parent="1">
          <mxGeometry x="421" y="368" width="71" height="31" as="geometry" />
        </mxCell>
        <mxCell id="1xl6KJvUVZGci1ZkjZxp-34" value="运行时" style="rounded=1;whiteSpace=wrap;html=1;" vertex="1" parent="1">
          <mxGeometry x="421" y="508" width="71" height="31" as="geometry" />
        </mxCell>
        <mxCell id="1xl6KJvUVZGci1ZkjZxp-39" value="" style="edgeStyle=orthogonalEdgeStyle;rounded=0;orthogonalLoop=1;jettySize=auto;html=1;" edge="1" parent="1" source="1xl6KJvUVZGci1ZkjZxp-35" target="1xl6KJvUVZGci1ZkjZxp-34">
          <mxGeometry relative="1" as="geometry" />
        </mxCell>
        <mxCell id="1xl6KJvUVZGci1ZkjZxp-35" value="解释器" style="rounded=1;whiteSpace=wrap;html=1;" vertex="1" parent="1">
          <mxGeometry x="421" y="462" width="71" height="31" as="geometry" />
        </mxCell>
        <mxCell id="1xl6KJvUVZGci1ZkjZxp-38" value="" style="edgeStyle=orthogonalEdgeStyle;rounded=0;orthogonalLoop=1;jettySize=auto;html=1;" edge="1" parent="1" source="1xl6KJvUVZGci1ZkjZxp-36" target="1xl6KJvUVZGci1ZkjZxp-35">
          <mxGeometry relative="1" as="geometry" />
        </mxCell>
        <mxCell id="1xl6KJvUVZGci1ZkjZxp-36" value="字节码验证器" style="rounded=1;whiteSpace=wrap;html=1;" vertex="1" parent="1">
          <mxGeometry x="410.5" y="414" width="92" height="33" as="geometry" />
        </mxCell>
        <mxCell id="1xl6KJvUVZGci1ZkjZxp-40" value="A.class" style="strokeWidth=2;html=1;shape=mxgraph.flowchart.document2;whiteSpace=wrap;size=0.25;" vertex="1" parent="1">
          <mxGeometry x="382.5" y="590" width="58" height="31" as="geometry" />
        </mxCell>
        <mxCell id="1xl6KJvUVZGci1ZkjZxp-41" value="B.class" style="strokeWidth=2;html=1;shape=mxgraph.flowchart.document2;whiteSpace=wrap;size=0.25;" vertex="1" parent="1">
          <mxGeometry x="463.5" y="590" width="58" height="31" as="geometry" />
        </mxCell>
      </root>
    </mxGraphModel>
  </diagram>
</mxfile>
